<?xml version="1.0" encoding="iso-8859-1"?>
<!-- Uploaded to: SVG Repo, www.svgrepo.com, Generator: SVG Repo Mixer Tools -->
<svg height="800px" width="800px" version="1.1" id="Layer_1" xmlns="http://www.w3.org/2000/svg" xmlns:xlink="http://www.w3.org/1999/xlink" 
	 viewBox="0 0 512.001 512.001" xml:space="preserve">
<g>
	<path style="fill:#FCE469;" d="M414.353,297.125c-40.18,0-61.942-4.964-73.71-11.817c-15.153-8.824-13.738-20.781-13.738-29.307
		c0-8.527-1.415-20.484,13.739-29.308c11.769-6.853,33.531-11.817,73.709-11.817c48.296,0.001,87.448,41.125,87.448,41.125
		S462.65,297.125,414.353,297.125z"/>
	<path style="fill:#FCE469;" d="M397.052,173.108c-28.411,28.411-47.309,40.289-60.477,43.765
		c-16.954,4.475-24.409-4.979-30.437-11.009c-6.03-6.03-15.484-13.484-11.009-30.44c3.476-13.167,15.354-32.065,43.765-60.475
		c34.151-34.151,90.915-32.756,90.915-32.756S431.202,138.958,397.052,173.108z"/>
	<path style="fill:#FCE469;" d="M297.125,97.649c0,40.18-4.964,61.942-11.817,73.71c-8.824,15.153-20.781,13.738-29.307,13.738
		c-8.527,0-20.484,1.415-29.308-13.739c-6.853-11.769-11.817-33.531-11.817-73.709C214.876,49.353,256,10.2,256,10.2
		S297.125,49.353,297.125,97.649z"/>
	<path style="fill:#FCE469;" d="M173.107,114.95c28.411,28.411,40.289,47.309,43.765,60.477
		c4.475,16.954-4.979,24.409-11.009,30.437c-6.03,6.03-13.484,15.484-30.44,11.009c-13.167-3.476-32.065-15.354-60.475-43.765
		c-34.15-34.151-32.756-90.915-32.756-90.915S138.957,80.799,173.107,114.95z"/>
	<path style="fill:#FCE469;" d="M97.649,214.877c40.18,0,61.942,4.964,73.71,11.817c15.153,8.824,13.738,20.781,13.738,29.307
		c0,8.527,1.415,20.484-13.739,29.308c-11.769,6.853-33.531,11.817-73.709,11.817C49.351,297.125,10.2,256.001,10.2,256.001
		S49.351,214.877,97.649,214.877z"/>
	<path style="fill:#FCE469;" d="M114.95,338.894c28.411-28.411,47.309-40.289,60.477-43.765
		c16.954-4.475,24.409,4.979,30.437,11.009c6.03,6.03,15.484,13.484,11.009,30.44c-3.476,13.167-15.354,32.065-43.765,60.475
		c-34.151,34.151-90.915,32.756-90.915,32.756S80.799,373.045,114.95,338.894z"/>
	<path style="fill:#FCE469;" d="M214.876,414.354c0-40.18,4.964-61.942,11.817-73.71c8.824-15.153,20.781-13.738,29.307-13.738
		c8.527,0,20.484-1.415,29.308,13.739c6.853,11.769,11.817,33.531,11.817,73.709C297.125,462.65,256,501.802,256,501.802
		S214.876,462.65,214.876,414.354z"/>
	<path style="fill:#FCE469;" d="M338.893,397.053c-28.411-28.411-40.289-47.309-43.765-60.477
		c-4.475-16.954,4.979-24.409,11.009-30.437c6.03-6.03,13.484-15.484,30.44-11.009c13.167,3.476,32.065,15.354,60.475,43.765
		c34.151,34.151,32.756,90.915,32.756,90.915S373.045,431.203,338.893,397.053z"/>
</g>
<circle style="fill:#FFA22B;" cx="256" cy="256.001" r="88.223"/>
<g>
	<path style="fill:#570029;" d="M509.188,248.968c-1.722-1.808-42.765-44.291-94.834-44.291c-15.003,0-28.107,0.683-39.418,2.059
		c8.971-7.025,18.721-15.808,29.33-26.417c36.819-36.819,35.801-95.881,35.74-98.377c-0.134-5.436-4.509-9.813-9.945-9.945
		c-2.508-0.064-61.559-1.077-98.378,35.74c-10.608,10.608-19.391,20.358-26.416,29.329c1.376-11.311,2.059-24.415,2.059-39.418
		c0-52.07-42.483-93.114-44.291-94.835c-3.938-3.75-10.127-3.75-14.066,0c-1.808,1.722-44.291,42.765-44.291,94.835
		c0,15.003,0.683,28.107,2.059,39.418c-7.025-8.971-15.808-18.721-26.417-29.329C143.5,70.917,84.435,71.93,81.942,71.997
		c-5.437,0.134-9.813,4.509-9.945,9.945c-0.061,2.496-1.079,61.558,35.74,98.377c10.609,10.608,20.358,19.392,29.329,26.417
		c-11.312-1.376-24.416-2.059-39.418-2.059c-52.07,0-93.114,42.483-94.835,44.291c-3.749,3.938-3.749,10.127,0,14.065
		c1.722,1.808,42.765,44.291,94.835,44.291c15.003,0,28.107-0.683,39.418-2.059c-8.971,7.025-18.721,15.808-29.329,26.417
		c-36.819,36.819-35.802,95.881-35.74,98.377c0.134,5.437,4.509,9.813,9.945,9.945c0.178,0.004,0.645,0.013,1.372,0.013
		c9.452,0,62.818-1.567,97.005-35.753c10.608-10.609,19.392-20.358,26.417-29.329c-1.376,11.312-2.059,24.416-2.059,39.418
		c0,52.07,42.483,93.114,44.291,94.835c1.969,1.875,4.501,2.812,7.032,2.812c2.531,0,5.064-0.937,7.033-2.812
		c1.807-1.722,44.291-42.765,44.291-94.835c0-15.003-0.683-28.107-2.059-39.418c7.025,8.971,15.808,18.721,26.416,29.329
		c34.19,34.19,87.559,35.753,97.006,35.753c0.726,0,1.194-0.009,1.373-0.013c5.436-0.134,9.812-4.509,9.945-9.945
		c0.061-2.496,1.079-61.558-35.74-98.377c-10.608-10.608-20.358-19.392-29.329-26.416c11.311,1.376,24.415,2.059,39.418,2.059
		c52.07,0,93.114-42.483,94.834-44.291C512.938,259.095,512.938,252.907,509.188,248.968z M256,334.025
		c-43.022,0-78.024-35.002-78.024-78.024s35.002-78.024,78.024-78.024c43.023,0,78.024,35.002,78.024,78.024
		S299.024,334.025,256,334.025z M346.105,122.162c22.272-22.272,56.141-27.899,73.066-29.309
		c-1.381,16.906-6.97,50.683-29.331,73.044c-20.35,20.351-37.052,33.412-49.783,38.953c-8.19-13.408-19.496-24.715-32.904-32.905
		C312.695,159.213,325.754,142.512,346.105,122.162z M256.016,25.259c10.978,12.931,30.911,40.766,30.911,72.39
		c0,28.761-2.571,49.796-7.648,62.718c-7.466-1.818-15.26-2.788-23.278-2.788s-15.812,0.971-23.278,2.788
		c-5.076-12.923-7.647-33.958-7.647-62.719C225.075,66.152,245.045,38.224,256.016,25.259z M92.852,92.831
		c16.906,1.381,50.683,6.969,73.044,29.331c20.351,20.35,33.412,37.052,38.953,49.783c-13.409,8.19-24.715,19.496-32.905,32.905
		c-12.731-5.541-29.432-18.601-49.783-38.953C99.889,143.625,94.263,109.757,92.852,92.831z M25.259,255.986
		c12.931-10.978,40.766-30.911,72.39-30.911c28.761,0,49.796,2.571,62.719,7.647c-1.817,7.466-2.788,15.26-2.788,23.278
		c0,8.018,0.971,15.812,2.788,23.278c-12.923,5.076-33.958,7.647-62.719,7.647C66.152,286.927,38.224,266.957,25.259,255.986z
		 M165.896,389.841c-22.271,22.271-56.138,27.899-73.065,29.308c1.381-16.906,6.969-50.683,29.331-73.044
		c20.35-20.352,37.052-33.412,49.783-38.953c8.19,13.409,19.496,24.715,32.905,32.905
		C199.307,352.788,186.247,369.489,165.896,389.841z M255.986,486.743c-10.978-12.931-30.911-40.766-30.911-72.39
		c0-28.761,2.571-49.796,7.647-62.719c7.466,1.818,15.26,2.788,23.278,2.788c8.018,0,15.812-0.971,23.278-2.788
		c5.076,12.922,7.647,33.957,7.647,62.719C286.926,445.851,266.956,473.778,255.986,486.743z M419.15,419.171
		c-16.907-1.381-50.684-6.969-73.045-29.331c-20.35-20.35-33.411-37.052-38.953-49.783c13.408-8.19,24.715-19.496,32.905-32.905
		c12.732,5.542,29.433,18.601,49.783,38.953C412.113,368.378,417.739,402.245,419.15,419.171z M414.353,286.927
		c-28.761,0-49.796-2.571-62.719-7.647c1.818-7.466,2.788-15.26,2.788-23.278c0-8.018-0.971-15.812-2.788-23.278
		c12.923-5.076,33.958-7.647,62.719-7.647c31.481,0,59.397,19.951,72.372,30.925C473.744,266.98,445.831,286.927,414.353,286.927z"
		/>
	<path style="fill:#570029;" d="M313.795,279.462c-4.797-2.948-11.078-1.446-14.029,3.352
		c-9.424,15.345-25.786,24.506-43.766,24.506c-5.633,0-10.199,4.566-10.199,10.199s4.566,10.199,10.199,10.199
		c25.125,0,47.984-12.795,61.148-34.228C320.096,288.691,318.595,282.41,313.795,279.462z"/>
	<path style="fill:#570029;" d="M316.982,269.051c0.161,0.007,0.319,0.011,0.479,0.011c5.417,0,9.928-4.262,10.18-9.729
		c0.051-1.1,0.077-2.221,0.077-3.332c0-5.633-4.567-10.199-10.199-10.199c-5.632,0-10.199,4.566-10.199,10.199
		c0,0.802-0.018,1.598-0.055,2.391C307.005,264.019,311.356,268.791,316.982,269.051z"/>
</g>
</svg>